<svg width="20" height="20" viewBox="0 0 20 20" fill="none" xmlns="http://www.w3.org/2000/svg">
<g clip-path="url(#clip0_386_2011)">
<mask id="mask0_386_2011" style="mask-type:luminance" maskUnits="userSpaceOnUse" x="0" y="0" width="20" height="20">
<path d="M0 0H20V19.5122H0V0Z" fill="white"/>
</mask>
<g mask="url(#mask0_386_2011)">
<path d="M9.80371 0.708984C9.85408 0.611108 9.98685 0.561905 10.0996 0.616211H10.1006C10.1432 0.636773 10.1747 0.670076 10.1934 0.707031H10.1943L12.7275 5.71777L12.8447 5.95117L13.1035 5.9873L18.7695 6.79004V6.79102C18.9014 6.81026 18.9642 6.91983 18.9502 7.00879L18.9492 7.01367C18.9435 7.05252 18.9241 7.09095 18.8906 7.12305L14.791 11.0225L14.5967 11.208L14.6436 11.4717L15.6123 16.9795C15.6288 17.0728 15.5658 17.1817 15.4395 17.2031H15.4385C15.3889 17.2115 15.3387 17.2028 15.2998 17.1826L15.2969 17.1816L10.2275 14.5811L10 14.4639L9.77148 14.5811L4.70215 17.1816H4.70117C4.66273 17.2015 4.62588 17.2092 4.58105 17.2061C4.53634 17.2029 4.50132 17.1905 4.4668 17.166H4.46777C4.43345 17.1417 4.41298 17.1159 4.39844 17.0811C4.39126 17.0638 4.38659 17.0474 4.38477 17.0312L4.38672 16.9795L5.35547 11.4717L5.40234 11.208L5.20801 11.0225L1.10742 7.12305V7.12207C1.0624 7.07917 1.04763 7.04324 1.04688 6.9873C1.04616 6.93187 1.05959 6.89597 1.10254 6.85254C1.13546 6.81986 1.17862 6.7978 1.22656 6.79102H1.22852L6.89551 5.9873L7.1543 5.95117L7.27148 5.71777L9.80371 0.708984Z" stroke="#2E3A45" stroke-opacity="0.2"/>
</g>
</g>
<defs>
<clipPath id="clip0_386_2011">
<rect width="20" height="20" fill="white"/>
</clipPath>
</defs>
</svg>
