<svg width="20" height="20" viewBox="0 0 20 20" fill="none" xmlns="http://www.w3.org/2000/svg">
<g clip-path="url(#clip0_386_1947)">
<mask id="mask0_386_1947" style="mask-type:luminance" maskUnits="userSpaceOnUse" x="0" y="0" width="20" height="20">
<path d="M0 0H20V19.5122H0V0Z" fill="white"/>
</mask>
<g mask="url(#mask0_386_1947)">
<path d="M18.8411 6.29585L13.1737 5.49228L10.6402 0.481389C10.571 0.344194 10.4571 0.23313 10.3165 0.165622C9.96381 -0.00423835 9.53524 0.137312 9.3589 0.481389L6.82543 5.49228L1.15801 6.29585C1.00176 6.31762 0.858904 6.38949 0.749529 6.49837C0.611861 6.63642 0.544334 6.80174 0.546948 6.99433C0.549563 7.18691 0.621554 7.35043 0.762922 7.48487L4.86337 11.3852L3.89461 16.8926C3.87144 17.0232 3.88542 17.15 3.93656 17.2729C3.9877 17.3958 4.06826 17.4962 4.17826 17.5741C4.28825 17.652 4.41103 17.6957 4.54662 17.7052C4.68222 17.7146 4.81012 17.6884 4.93034 17.6264L9.99953 15.0262L15.0688 17.6264C15.2071 17.6983 15.3679 17.7222 15.5219 17.6961C15.9103 17.6308 16.1714 17.2715 16.1045 16.8926L15.1357 11.3852L19.2362 7.48487C19.3478 7.37817 19.4214 7.23879 19.4438 7.08635C19.504 6.70526 19.2317 6.35247 18.8411 6.29585Z" fill="#FACC15"/>
</g>
</g>
<defs>
<clipPath id="clip0_386_1947">
<rect width="20" height="20" fill="white"/>
</clipPath>
</defs>
</svg>
