<svg width="36" height="36" viewBox="0 0 36 36" fill="none" xmlns="http://www.w3.org/2000/svg">
<path d="M23.163 34.5C23.163 33.0456 22.5852 31.6507 21.5568 30.6222C20.5283 29.5938 19.1334 29.016 17.679 29.016C16.2246 29.016 14.8297 29.5938 13.8012 30.6222C12.7728 31.6507 12.195 33.0456 12.195 34.5M33.912 30.429C33.9124 29.3986 33.616 28.39 33.0581 27.5237C32.5003 26.6574 31.7047 25.9701 30.7665 25.5441C29.8283 25.1181 28.7872 24.9715 27.7679 25.1217C26.7485 25.2719 25.794 25.7125 25.0185 26.391M1.125 30.429C1.1246 29.3986 1.42105 28.39 1.97889 27.5237C2.53673 26.6574 3.33233 25.9701 4.27053 25.5441C5.20872 25.1181 6.24978 24.9715 7.26914 25.1217C8.28851 25.2719 9.24303 25.7125 10.0185 26.391M17.5185 13.5C18.1094 13.5 18.6946 13.3836 19.2406 13.1575C19.7865 12.9313 20.2826 12.5998 20.7005 12.182M17.5185 13.5C16.325 13.5 15.1804 13.0259 14.3365 12.182M17.5185 13.5V16.875M20.7005 12.182C21.1183 11.7641 21.4498 11.268 21.676 10.7221C21.9021 10.1761 22.0185 9.59095 22.0185 9M20.7005 12.182L23.0865 14.568M22.0185 9C22.0185 8.40905 21.9021 7.82389 21.676 7.27792C21.4498 6.73196 21.1183 6.23588 20.7005 5.81802M22.0185 9H25.3935M20.7005 5.81802C20.2826 5.40016 19.7865 5.06869 19.2406 4.84254C18.6946 4.6164 18.1094 4.5 17.5185 4.5M20.7005 5.81802L23.0865 3.432M17.5185 4.5C16.325 4.5 15.1804 4.97411 14.3365 5.81802M17.5185 4.5V1.125M14.3365 5.81802C13.4926 6.66193 13.0185 7.80653 13.0185 9M14.3365 5.81802L11.9505 3.432M13.0185 9C13.0185 10.1935 13.4926 11.3381 14.3365 12.182M13.0185 9H9.6435M14.3365 12.182L11.9505 14.568M16.7685 1.125H18.2685M22.557 2.901L23.6175 3.9615M25.3935 8.25V9.75M23.6175 14.0385L22.557 15.099M18.2685 16.875H16.7685M12.48 15.099L11.4195 14.0385M9.6435 9.75V8.25M11.4195 3.9615L12.48 2.901M17.679 27.189C18.0854 27.189 18.4878 27.109 18.8632 26.9534C19.2387 26.7979 19.5798 26.57 19.8671 26.2826C20.1545 25.9953 20.3824 25.6542 20.5379 25.2787C20.6935 24.9033 20.7735 24.5009 20.7735 24.0945C20.7735 23.6881 20.6935 23.2857 20.5379 22.9103C20.3824 22.5348 20.1545 22.1937 19.8671 21.9064C19.5798 21.619 19.2387 21.3911 18.8632 21.2356C18.4878 21.08 18.0854 21 17.679 21C16.8583 21 16.0712 21.326 15.4909 21.9064C14.9105 22.4867 14.5845 23.2738 14.5845 24.0945C14.5845 24.9152 14.9105 25.7023 15.4909 26.2826C16.0712 26.863 16.8583 27.189 17.679 27.189ZM28.548 23.2785C29.3504 23.2785 30.12 22.9597 30.6874 22.3924C31.2547 21.825 31.5735 21.0554 31.5735 20.253C31.5735 19.4506 31.2547 18.681 30.6874 18.1136C30.12 17.5463 29.3504 17.2275 28.548 17.2275C27.7456 17.2275 26.976 17.5463 26.4086 18.1136C25.8413 18.681 25.5225 19.4506 25.5225 20.253C25.5225 21.0554 25.8413 21.825 26.4086 22.3924C26.976 22.9597 27.7456 23.2785 28.548 23.2785ZM6.489 23.2785C7.29141 23.2785 8.06096 22.9597 8.62835 22.3924C9.19574 21.825 9.5145 21.0554 9.5145 20.253C9.5145 19.4506 9.19574 18.681 8.62835 18.1136C8.06096 17.5463 7.29141 17.2275 6.489 17.2275C5.68659 17.2275 4.91704 17.5463 4.34965 18.1136C3.78226 18.681 3.4635 19.4506 3.4635 20.253C3.4635 21.0554 3.78226 21.825 4.34965 22.3924C4.91704 22.9597 5.68659 23.2785 6.489 23.2785Z" stroke="white" stroke-width="2.25" stroke-linecap="round" stroke-linejoin="round"/>
</svg>
