<svg width="14" height="14" viewBox="0 0 14 14" fill="none" xmlns="http://www.w3.org/2000/svg">
<path d="M7.33864 1.56681C7.23973 1.4962 7.12125 1.45825 6.99972 1.45825C6.8782 1.45825 6.75971 1.4962 6.66081 1.56681L1.11914 5.52531L1.79697 6.47439L6.99972 2.75914L12.2025 6.47497L12.8803 5.52589L7.33864 1.56681ZM11.422 7.40014L7.33864 4.48347C7.23973 4.41287 7.12125 4.37492 6.99972 4.37492C6.8782 4.37492 6.75971 4.41287 6.66081 4.48347L2.57747 7.40014C2.50176 7.45405 2.44003 7.52526 2.39741 7.60786C2.3548 7.69045 2.33253 7.78203 2.33247 7.87497V11.6666C2.33247 11.8214 2.39393 11.9697 2.50333 12.0791C2.61272 12.1885 2.7611 12.25 2.91581 12.25H11.0825C11.2372 12.25 11.3856 12.1885 11.495 12.0791C11.6043 11.9697 11.6658 11.8214 11.6658 11.6666V7.87497C11.6659 7.78214 11.6438 7.69062 11.6014 7.60803C11.559 7.52545 11.4975 7.45417 11.422 7.40014ZM3.49972 11.0833V8.17539L6.99972 5.67522L10.4997 8.17539V11.0833H3.49972Z" fill="#1F6FEB"/>
</svg>
