<svg width="24" height="24" viewBox="0 0 24 24" fill="none" xmlns="http://www.w3.org/2000/svg">
<path d="M11.6667 0C5.23367 0 0 5.23367 0 11.6667V16.5002C0 17.6948 1.0465 18.6667 2.33333 18.6667H3.5C3.80942 18.6667 4.10616 18.5438 4.32496 18.325C4.54375 18.1062 4.66667 17.8094 4.66667 17.5V11.4998C4.66667 11.1904 4.54375 10.8937 4.32496 10.6749C4.10616 10.4561 3.80942 10.3332 3.5 10.3332H2.44067C3.08933 5.81817 6.97433 2.33333 11.6667 2.33333C16.359 2.33333 20.244 5.81817 20.8927 10.3332H19.8333C19.5239 10.3332 19.2272 10.4561 19.0084 10.6749C18.7896 10.8937 18.6667 11.1904 18.6667 11.4998V18.6667C18.6667 19.9535 17.6202 21 16.3333 21H14V19.8333H9.33333V23.3333H16.3333C18.907 23.3333 21 21.2403 21 18.6667C22.2868 18.6667 23.3333 17.6948 23.3333 16.5002V11.6667C23.3333 5.23367 18.0997 0 11.6667 0Z" fill="#F6C90E"/>
</svg>
