<svg width="27" height="23" viewBox="0 0 27 23" fill="none" xmlns="http://www.w3.org/2000/svg">
<path d="M4.66783 8.16667C4.97725 8.16667 5.274 8.28958 5.49279 8.50838C5.71158 8.72717 5.8345 9.02391 5.8345 9.33333C7.6675 9.33063 9.44764 9.94731 10.8862 11.0833H13.4178C14.9718 11.0833 16.3695 11.76 17.3308 12.8333H21.0012C22.104 12.833 23.1843 13.1453 24.1168 13.734C25.0493 14.3228 25.7958 15.1638 26.2698 16.1595C23.5107 19.7995 19.0435 22.1667 14.0012 22.1667C10.7462 22.1667 7.99283 21.4632 5.76333 20.2323C5.68143 20.4574 5.53225 20.6518 5.33606 20.7891C5.13986 20.9264 4.90615 21.0001 4.66667 21H1.16667C0.857247 21 0.560501 20.8771 0.341709 20.6583C0.122916 20.4395 0 20.1428 0 19.8333V9.33333C0 9.02391 0.122916 8.72717 0.341709 8.50838C0.560501 8.28958 0.857247 8.16667 1.16667 8.16667H4.66783ZM5.8345 11.6667V17.5257L5.887 17.563C7.98 19.033 10.7088 19.8333 14.0012 19.8333C17.5058 19.8333 20.7655 18.4847 23.142 16.1817L23.2972 16.0265L23.1572 15.9098C22.6061 15.4787 21.9384 15.2227 21.2403 15.1748L21.0012 15.1667H18.5372C18.6227 15.5423 18.6663 15.9312 18.6678 16.3333V17.5H8.16783V15.1667L16.0895 15.1655L16.0498 15.0733C15.8262 14.6063 15.4822 14.2072 15.0533 13.9171C14.6244 13.6269 14.1259 13.4562 13.6092 13.4225L13.4178 13.4167H9.9995C9.45649 12.8627 8.80845 12.4226 8.09329 12.1221C7.37813 11.8216 6.61022 11.6668 5.8345 11.6667ZM3.50117 10.5H2.3345V18.6667H3.50117V10.5ZM19.8345 3.5C20.7628 3.5 21.653 3.86875 22.3094 4.52513C22.9657 5.1815 23.3345 6.07174 23.3345 7C23.3345 7.92826 22.9657 8.8185 22.3094 9.47487C21.653 10.1313 20.7628 10.5 19.8345 10.5C18.9062 10.5 18.016 10.1313 17.3596 9.47487C16.7032 8.8185 16.3345 7.92826 16.3345 7C16.3345 6.07174 16.7032 5.1815 17.3596 4.52513C18.016 3.86875 18.9062 3.5 19.8345 3.5ZM19.8345 5.83333C19.5251 5.83333 19.2283 5.95625 19.0095 6.17504C18.7908 6.39383 18.6678 6.69058 18.6678 7C18.6678 7.30942 18.7908 7.60616 19.0095 7.82496C19.2283 8.04375 19.5251 8.16667 19.8345 8.16667C20.1439 8.16667 20.4407 8.04375 20.6595 7.82496C20.8783 7.60616 21.0012 7.30942 21.0012 7C21.0012 6.69058 20.8783 6.39383 20.6595 6.17504C20.4407 5.95625 20.1439 5.83333 19.8345 5.83333ZM11.6678 0C12.5961 0 13.4863 0.368749 14.1427 1.02513C14.7991 1.6815 15.1678 2.57174 15.1678 3.5C15.1678 4.42826 14.7991 5.3185 14.1427 5.97487C13.4863 6.63125 12.5961 7 11.6678 7C10.7396 7 9.84934 6.63125 9.19296 5.97487C8.53658 5.3185 8.16783 4.42826 8.16783 3.5C8.16783 2.57174 8.53658 1.6815 9.19296 1.02513C9.84934 0.368749 10.7396 0 11.6678 0ZM11.6678 2.33333C11.3584 2.33333 11.0617 2.45625 10.8429 2.67504C10.6241 2.89383 10.5012 3.19058 10.5012 3.5C10.5012 3.80942 10.6241 4.10617 10.8429 4.32496C11.0617 4.54375 11.3584 4.66667 11.6678 4.66667C11.9773 4.66667 12.274 4.54375 12.4928 4.32496C12.7116 4.10617 12.8345 3.80942 12.8345 3.5C12.8345 3.19058 12.7116 2.89383 12.4928 2.67504C12.274 2.45625 11.9773 2.33333 11.6678 2.33333Z" fill="#1B9C85"/>
</svg>
