<svg width="13" height="13" viewBox="0 0 13 13" fill="none" xmlns="http://www.w3.org/2000/svg">
<path d="M1.60449 5.10417C1.60449 2.90442 1.60449 1.80425 2.28816 1.12117C2.97183 0.438083 4.07141 0.4375 6.27116 0.4375C8.47091 0.4375 9.57107 0.4375 10.2542 1.12117C10.9372 1.80483 10.9378 2.90442 10.9378 5.10417V6.27083C10.9378 8.47058 10.9378 9.57075 10.2542 10.2538C9.57049 10.9369 8.47091 10.9375 6.27116 10.9375C4.07141 10.9375 2.97124 10.9375 2.28816 10.2538C1.60508 9.57017 1.60449 8.47058 1.60449 6.27083V5.10417Z" stroke="#1F6FEB" stroke-width="0.875"/>
<path d="M8.3125 8.60409H9.1875M3.35417 8.60409H4.22917M2.77083 10.6458V11.5208C2.77083 11.6755 2.83229 11.8238 2.94169 11.9332C3.05108 12.0426 3.19946 12.1041 3.35417 12.1041H4.22917C4.38388 12.1041 4.53225 12.0426 4.64165 11.9332C4.75104 11.8238 4.8125 11.6755 4.8125 11.5208V10.9374M9.77083 10.6458V11.5208C9.77083 11.6755 9.70938 11.8238 9.59998 11.9332C9.49058 12.0426 9.34221 12.1041 9.1875 12.1041H8.3125C8.15779 12.1041 8.00942 12.0426 7.90002 11.9332C7.79062 11.8238 7.72917 11.6755 7.72917 11.5208V10.9374M10.9375 4.52075H11.5208C11.6755 4.52075 11.8239 4.58221 11.9333 4.69161C12.0427 4.801 12.1042 4.94938 12.1042 5.10409V5.68742C12.1042 5.77798 12.0831 5.86729 12.0426 5.94829C12.0021 6.02929 11.9433 6.09975 11.8708 6.15409L10.9375 6.85409H1.60417L0.670833 6.15409C0.598386 6.09975 0.539584 6.02929 0.499084 5.94829C0.458585 5.86729 0.4375 5.77798 0.4375 5.68742V5.10409C0.4375 4.94938 0.498958 4.801 0.608354 4.69161C0.717751 4.58221 0.866124 4.52075 1.02083 4.52075H1.60417" stroke="#1F6FEB" stroke-width="0.875" stroke-linecap="round" stroke-linejoin="round"/>
<path d="M10.6455 2.1875H1.89551" stroke="#1F6FEB" stroke-width="0.875" stroke-linecap="round"/>
</svg>
