<svg width="28" height="28" viewBox="0 0 28 28" fill="none" xmlns="http://www.w3.org/2000/svg">
<path d="M21.5837 21.5833C22.2137 21.5833 22.7503 22.1199 22.7503 22.7499C22.7503 23.3799 22.2137 23.9166 21.5837 23.9166H7.58367C6.95367 23.9166 6.417 23.3799 6.417 22.7499C6.417 22.1199 6.95367 21.5833 7.58367 21.5833H21.5837ZM21.5837 19.8333H7.58367C5.98534 19.8333 4.667 21.1516 4.667 22.7499C4.667 24.3483 5.98534 25.6666 7.58367 25.6666H21.5837C22.3572 25.6666 23.0991 25.3593 23.6461 24.8123C24.193 24.2653 24.5003 23.5235 24.5003 22.7499C24.5003 21.9764 24.193 21.2345 23.6461 20.6875C23.0991 20.1405 22.3572 19.8333 21.5837 19.8333ZM24.5003 12.8333H21.0003V8.16658H15.167L11.667 12.8333V18.6666H25.667L24.5003 12.8333ZM13.4637 12.8333L15.7503 9.91658H18.667V12.8333H13.4637ZM11.387 3.97825L5.55367 2.33325L2.33367 13.8016C1.937 15.2949 2.812 16.8466 4.317 17.2666L5.67034 17.6399L9.50867 14.3383L4.982 13.0783L7.17534 5.20325L10.4303 6.11325C11.0837 6.45158 12.4953 7.39658 13.382 8.59825L14.5837 6.99992H15.097C13.627 5.14492 11.492 4.03659 11.387 3.97825Z" fill="#1F6FEB"/>
</svg>
