<svg width="12" height="14" viewBox="0 0 12 14" fill="none" xmlns="http://www.w3.org/2000/svg">
<path fill-rule="evenodd" clip-rule="evenodd" d="M0.0202169 5.07133C0.134467 3.68932 0.764091 2.40075 1.78415 1.46133C2.80421 0.521917 4.14015 0.000303854 5.52688 0H5.81488C7.20162 0.000303854 8.53756 0.521917 9.55762 1.46133C10.5777 2.40075 11.2073 3.68932 11.3216 5.07133C11.4486 6.61089 10.973 8.13964 9.99488 9.33533L6.79955 13.2427C6.6628 13.4099 6.49061 13.5446 6.29541 13.6372C6.10022 13.7297 5.8869 13.7777 5.67088 13.7777C5.45487 13.7777 5.24155 13.7297 5.04635 13.6372C4.85116 13.5446 4.67896 13.4099 4.54222 13.2427L1.34688 9.33533C0.368773 8.13964 -0.106872 6.61089 0.0202169 5.07133ZM5.52688 1C4.39129 1.00048 3.29737 1.42776 2.46209 2.1971C1.62681 2.96643 1.11121 4.02161 1.01755 5.15333C0.911738 6.4346 1.30755 7.70689 2.12155 8.702L5.31688 12.61C5.35984 12.6626 5.41394 12.7049 5.47528 12.734C5.53662 12.7631 5.60366 12.7782 5.67155 12.7782C5.73944 12.7782 5.80648 12.7631 5.86782 12.734C5.92916 12.7049 5.98326 12.6626 6.02622 12.61L9.22155 8.702C10.0351 7.70669 10.4304 6.43442 10.3242 5.15333C10.2306 4.0215 9.71485 2.96622 8.87943 2.19687C8.04401 1.42752 6.94992 1.00031 5.81422 1H5.52688Z" fill="#0A2540" fill-opacity="0.6"/>
</svg>
