<svg width="43" height="33" viewBox="0 0 43 33" fill="none" xmlns="http://www.w3.org/2000/svg">
<path d="M20.5145 0.157715V32.2598L16.5694 30.5571V10.415L10.2572 19.0941L3.94509 9.62593V17.5161L8.6792 23.0392L11.0463 22.2502L10.2572 23.0392H11.8353L10.2572 24.6173H3.15607L0.789018 23.0392C0.157804 23.0392 0.526012 21.4612 0.789018 20.6722L1.57804 19.0941L0 16.7271V14.36H0.789018V4.89182L0 4.10281V1.73575L0.789018 0.157715H3.94509L10.2572 11.204L16.5694 0.157715H20.5145Z" fill="url(#paint0_linear_463_123)"/>
<g clip-path="url(#clip0_463_123)">
<path d="M25.7602 22.2505C25.8994 22.2505 26.0239 22.3371 26.0708 22.4668L26.405 23.3933C26.5246 23.423 26.6278 23.4533 26.7146 23.4842C26.8093 23.518 26.9324 23.57 27.0839 23.6404L27.8622 23.2286C27.9257 23.1947 27.9984 23.1825 28.0695 23.1937C28.1406 23.2049 28.206 23.2389 28.2561 23.2906L28.9406 23.9983C29.0315 24.0925 29.0571 24.2303 29.0059 24.3505L28.6409 25.206C28.7012 25.3171 28.7498 25.4124 28.7868 25.4919C28.8265 25.5781 28.8758 25.698 28.9345 25.8517L29.7852 26.2163C29.913 26.2707 29.9921 26.3985 29.9835 26.5353L29.9211 27.5177C29.9168 27.5815 29.8939 27.6426 29.8552 27.6935C29.8164 27.7445 29.7636 27.7829 29.7033 27.8041L28.8975 28.0905C28.8745 28.2016 28.8502 28.2972 28.8246 28.3774C28.7833 28.5016 28.7362 28.6239 28.6836 28.7438L29.0883 29.6385C29.1171 29.7014 29.1249 29.7718 29.1106 29.8394C29.0963 29.907 29.0606 29.9682 29.0088 30.014L28.239 30.7013C28.1884 30.7466 28.1252 30.7752 28.0578 30.7834C27.9904 30.7915 27.9221 30.7787 27.8622 30.7468L27.0688 30.3264C26.9447 30.3924 26.8167 30.4504 26.6853 30.5001L26.3388 30.6299L26.031 31.482C26.008 31.5443 25.9668 31.5982 25.9128 31.6367C25.8588 31.6753 25.7944 31.6968 25.7281 31.6983L24.8286 31.7187C24.7604 31.7203 24.6935 31.7008 24.6368 31.6629C24.5801 31.6251 24.5365 31.5707 24.5119 31.5071L24.1492 30.5475C24.0255 30.5051 23.903 30.4593 23.7819 30.4102C23.6828 30.3673 23.5852 30.321 23.4893 30.2715L22.5898 30.6559C22.5306 30.6813 22.4652 30.6889 22.4017 30.6777C22.3382 30.6665 22.2794 30.6371 22.2324 30.5929L21.5668 29.9685C21.517 29.9223 21.4832 29.8616 21.47 29.7951C21.4568 29.7285 21.465 29.6595 21.4934 29.5978L21.8802 28.7552C21.8289 28.6553 21.7812 28.5536 21.7372 28.4503C21.6859 28.3238 21.6386 28.1958 21.5952 28.0663L20.7478 27.8083C20.6789 27.7875 20.6188 27.7445 20.5769 27.6861C20.5349 27.6276 20.5135 27.5569 20.5158 27.485L20.5489 26.5756C20.5514 26.5163 20.57 26.4587 20.6027 26.4092C20.6354 26.3596 20.681 26.32 20.7345 26.2944L21.6236 25.8673C21.6646 25.7165 21.7009 25.5984 21.7325 25.5132C21.7771 25.3988 21.8267 25.2863 21.8811 25.1762L21.4958 24.3619C21.4663 24.3001 21.4573 24.2305 21.4701 24.1633C21.4828 24.096 21.5167 24.0346 21.5668 23.9879L22.2314 23.3602C22.278 23.3161 22.3363 23.2865 22.3993 23.2749C22.4623 23.2633 22.5273 23.2702 22.5865 23.2948L23.485 23.666C23.5841 23.6 23.6744 23.5457 23.7558 23.5031C23.8527 23.452 23.9827 23.3974 24.1459 23.3393L24.4584 22.4678C24.4817 22.4042 24.524 22.3492 24.5795 22.3104C24.635 22.2715 24.7011 22.2506 24.7689 22.2505H25.7602ZM25.2613 25.5734C24.4721 25.5734 23.8325 26.2054 23.8325 26.9855C23.8325 27.7657 24.4721 28.3982 25.2613 28.3982C26.0504 28.3982 26.6895 27.7657 26.6895 26.9855C26.6895 26.2054 26.0504 25.5734 25.2613 25.5734Z" fill="url(#paint1_linear_463_123)"/>
</g>
<g clip-path="url(#clip1_463_123)">
<path d="M34.351 17.5159C34.467 17.5159 34.5707 17.5881 34.6098 17.6962L34.8883 18.4682C34.988 18.4929 35.074 18.5182 35.1463 18.544C35.2252 18.5721 35.3278 18.6155 35.454 18.6741L36.1026 18.3309C36.1555 18.3027 36.2162 18.2926 36.2754 18.3019C36.3346 18.3112 36.3891 18.3395 36.4308 18.3826L37.0013 18.9724C37.077 19.0509 37.0983 19.1657 37.0557 19.2659L36.7516 19.9788C36.8018 20.0714 36.8423 20.1508 36.8731 20.2171C36.9062 20.2889 36.9472 20.3888 36.9962 20.5169L37.7051 20.8207C37.8116 20.866 37.8775 20.9726 37.8704 21.0866L37.8183 21.9052C37.8148 21.9584 37.7957 22.0093 37.7634 22.0518C37.7312 22.0942 37.6871 22.1262 37.6369 22.1439L36.9654 22.3825C36.9462 22.4751 36.9259 22.5548 36.9046 22.6216C36.8702 22.7251 36.8309 22.827 36.7871 22.927L37.1244 23.6726C37.1484 23.7249 37.1549 23.7836 37.143 23.84C37.131 23.8963 37.1013 23.9473 37.0581 23.9854L36.4166 24.5583C36.3745 24.596 36.3217 24.6198 36.2656 24.6266C36.2094 24.6334 36.1525 24.6227 36.1026 24.5961L35.4414 24.2458C35.3381 24.3008 35.2313 24.3491 35.1219 24.3906L34.8331 24.4987L34.5766 25.2088C34.5575 25.2607 34.5231 25.3056 34.4781 25.3377C34.4331 25.3699 34.3795 25.3878 34.3242 25.3891L33.5746 25.4061C33.5178 25.4074 33.462 25.3911 33.4148 25.3596C33.3675 25.328 33.3312 25.2827 33.3107 25.2297L33.0085 24.43C32.9054 24.3947 32.8033 24.3566 32.7023 24.3156C32.6198 24.2799 32.5385 24.2413 32.4585 24.2L31.709 24.5204C31.6596 24.5415 31.6051 24.5479 31.5522 24.5385C31.4993 24.5292 31.4503 24.5047 31.4111 24.4679L30.8564 23.9476C30.815 23.9091 30.7867 23.8585 30.7758 23.803C30.7648 23.7475 30.7716 23.69 30.7953 23.6387L31.1176 22.9364C31.0749 22.8532 31.0351 22.7684 30.9984 22.6824C30.9557 22.577 30.9162 22.4703 30.8801 22.3624L30.1739 22.1474C30.1165 22.1301 30.0665 22.0942 30.0315 22.0455C29.9965 21.9968 29.9787 21.9379 29.9806 21.878L30.0082 21.1201C30.0103 21.0707 30.0258 21.0227 30.053 20.9815C30.0803 20.9402 30.1182 20.9071 30.1629 20.8858L30.9038 20.5299C30.938 20.4042 30.9682 20.3058 30.9945 20.2348C31.0317 20.1395 31.0731 20.0457 31.1184 19.9539L30.7972 19.2754C30.7727 19.2239 30.7652 19.1659 30.7758 19.1099C30.7865 19.0538 30.8147 19.0026 30.8564 18.9637L31.4103 18.4406C31.4491 18.4039 31.4977 18.3792 31.5502 18.3695C31.6027 18.3599 31.6569 18.3657 31.7062 18.3862L32.455 18.6955C32.5376 18.6405 32.6128 18.5952 32.6806 18.5597C32.7614 18.5171 32.8697 18.4716 33.0057 18.4232L33.2661 17.6969C33.2855 17.6439 33.3208 17.5981 33.367 17.5658C33.4133 17.5334 33.4684 17.516 33.5249 17.5159H34.351ZM33.9352 20.2849C33.2775 20.2849 32.7445 20.8116 32.7445 21.4617C32.7445 22.1119 33.2775 22.639 33.9352 22.639C34.5928 22.639 35.1254 22.1119 35.1254 21.4617C35.1254 20.8116 34.5928 20.2849 33.9352 20.2849Z" fill="url(#paint2_linear_463_123)"/>
</g>
<path d="M26.8279 20.6722H22.0938V0.157715H36.2961C45.1331 5.20743 39.9782 11.73 36.2961 14.36L42.6082 22.2502L38.6631 24.6173L30.773 14.36H26.8279V20.6722Z" fill="#F6BC23" stroke="#F7BF25" stroke-width="0.315616"/>
<path d="M26.8262 4.89355V11.2057H33.8733C38.2581 8.32015 35.7003 5.79529 33.8733 4.89355H26.8262Z" fill="white" stroke="#F7BF25" stroke-width="0.315616"/>
<g clip-path="url(#clip2_463_123)">
<path d="M32.1657 6.46924C32.2237 6.46924 32.2756 6.50534 32.2951 6.55938L32.4344 6.94541C32.4842 6.95777 32.5272 6.9704 32.5634 6.98328C32.6028 6.99735 32.6541 7.01905 32.7173 7.04838L33.0415 6.87677C33.068 6.86268 33.0983 6.85758 33.1279 6.86224C33.1575 6.8669 33.1848 6.88107 33.2057 6.90261L33.4909 7.1975C33.5288 7.23676 33.5394 7.29416 33.5181 7.34426L33.366 7.7007C33.3911 7.74699 33.4114 7.7867 33.4268 7.81984C33.4433 7.85574 33.4639 7.90571 33.4883 7.96975L33.8428 8.12164C33.896 8.14432 33.929 8.19758 33.9254 8.25459L33.8994 8.66389C33.8976 8.69048 33.8881 8.71597 33.8719 8.73718C33.8558 8.7584 33.8338 8.77441 33.8087 8.78323L33.4729 8.90257C33.4633 8.94886 33.4532 8.9887 33.4426 9.02211C33.4253 9.07387 33.4057 9.12482 33.3838 9.17478L33.5524 9.54759C33.5644 9.57377 33.5677 9.60311 33.5617 9.63128C33.5557 9.65945 33.5409 9.68495 33.5193 9.70402L33.1986 9.99043C33.1775 10.0093 33.1511 10.0212 33.123 10.0246C33.0949 10.028 33.0665 10.0227 33.0415 10.0094L32.7109 9.8342C32.6593 9.8617 32.6059 9.88588 32.5512 9.9066L32.4068 9.96064L32.2786 10.3157C32.269 10.3416 32.2518 10.3641 32.2293 10.3802C32.2068 10.3963 32.18 10.4052 32.1523 10.4058L31.7775 10.4143C31.7491 10.415 31.7212 10.4069 31.6976 10.3911C31.674 10.3753 31.6558 10.3526 31.6456 10.3262L31.4945 9.92632C31.4429 9.90867 31.3919 9.88959 31.3414 9.86912C31.3001 9.85125 31.2595 9.83197 31.2195 9.81132L30.8447 9.97149C30.82 9.98208 30.7928 9.98524 30.7663 9.98058C30.7399 9.97592 30.7154 9.96364 30.6958 9.94526L30.4184 9.68508C30.3977 9.66584 30.3836 9.64055 30.3781 9.61281C30.3726 9.58507 30.376 9.55631 30.3879 9.53063L30.549 9.17952C30.5277 9.13789 30.5078 9.09552 30.4895 9.05248C30.4681 8.99978 30.4484 8.94643 30.4303 8.89251L30.0772 8.78501C30.0485 8.77633 30.0235 8.75842 30.006 8.73406C29.9885 8.7097 29.9796 8.68025 29.9805 8.65028L29.9943 8.27136C29.9954 8.24664 30.0031 8.22268 30.0167 8.20203C30.0304 8.18139 30.0494 8.16485 30.0717 8.15419L30.4421 7.97626C30.4592 7.9134 30.4743 7.86422 30.4875 7.82872C30.5061 7.78103 30.5268 7.73417 30.5494 7.68827L30.3889 7.34899C30.3766 7.32325 30.3728 7.29426 30.3782 7.26624C30.3835 7.23821 30.3976 7.21262 30.4184 7.19316L30.6954 6.9316C30.7148 6.91325 30.7391 6.90091 30.7653 6.89608C30.7916 6.89125 30.8187 6.89413 30.8433 6.90438L31.2177 7.05903C31.259 7.03155 31.2966 7.00893 31.3306 6.99117C31.3709 6.96987 31.4251 6.94712 31.4931 6.92292L31.6233 6.55978C31.633 6.53327 31.6506 6.51037 31.6738 6.49418C31.6969 6.47799 31.7244 6.46929 31.7527 6.46924H32.1657ZM31.9578 7.85377C31.629 7.85377 31.3625 8.1171 31.3625 8.44218C31.3625 8.76725 31.629 9.03079 31.9578 9.03079C32.2866 9.03079 32.5529 8.76725 32.5529 8.44218C32.5529 8.1171 32.2866 7.85377 31.9578 7.85377Z" fill="url(#paint3_linear_463_123)"/>
</g>
<defs>
<linearGradient id="paint0_linear_463_123" x1="10.2572" y1="0.157715" x2="10.2572" y2="34.8745" gradientUnits="userSpaceOnUse">
<stop stop-color="#30556F"/>
<stop offset="1" stop-color="#0A2540"/>
</linearGradient>
<linearGradient id="paint1_linear_463_123" x1="25.2499" y1="22.2505" x2="25.2499" y2="31.7188" gradientUnits="userSpaceOnUse">
<stop stop-color="#30556F"/>
<stop offset="1" stop-color="#0A2540"/>
</linearGradient>
<linearGradient id="paint2_linear_463_123" x1="33.9257" y1="17.5159" x2="33.9257" y2="25.4061" gradientUnits="userSpaceOnUse">
<stop stop-color="#30556F"/>
<stop offset="1" stop-color="#0A2540"/>
</linearGradient>
<linearGradient id="paint3_linear_463_123" x1="31.9531" y1="6.46924" x2="31.9531" y2="10.4144" gradientUnits="userSpaceOnUse">
<stop stop-color="#30556F"/>
<stop offset="1" stop-color="#0A2540"/>
</linearGradient>
<clipPath id="clip0_463_123">
<rect width="9.46822" height="9.46822" fill="white" transform="translate(20.5156 22.2507)"/>
</clipPath>
<clipPath id="clip1_463_123">
<rect width="7.89018" height="7.89018" fill="white" transform="translate(29.9805 17.5166)"/>
</clipPath>
<clipPath id="clip2_463_123">
<rect width="3.94509" height="3.94509" fill="white" transform="translate(29.9805 6.46899)"/>
</clipPath>
</defs>
</svg>
