<svg width="328" height="60" viewBox="0 0 328 60" fill="none" xmlns="http://www.w3.org/2000/svg">
<circle cx="30" cy="30" r="28.9231" fill="white" stroke="#F7BF25" stroke-width="2.15385"/>
<path d="M29.2098 16.3594V48.4614L25.2647 46.7588V26.6166L18.9525 35.2958L12.6404 25.8276V33.7178L17.3745 39.2409L19.7416 38.4519L18.9525 39.2409H20.5306L18.9525 40.8189H11.8514L9.48433 39.2409C8.85312 39.2409 9.22132 37.6629 9.48433 36.8738L10.2733 35.2958L8.69531 32.9288V30.5617H9.48433V21.0935L8.69531 20.3045V17.9374L9.48433 16.3594H12.6404L18.9525 27.4056L25.2647 16.3594H29.2098Z" fill="url(#paint0_linear_463_120)"/>
<g clip-path="url(#clip0_463_120)">
<path d="M34.4556 38.4521C34.5947 38.4521 34.7192 38.5388 34.7661 38.6685L35.1003 39.595C35.22 39.6246 35.3232 39.6549 35.41 39.6859C35.5046 39.7196 35.6277 39.7717 35.7792 39.8421L36.5575 39.4302C36.621 39.3964 36.6938 39.3842 36.7648 39.3954C36.8359 39.4065 36.9014 39.4405 36.9514 39.4922L37.6359 40.2C37.7268 40.2942 37.7524 40.432 37.7013 40.5522L37.3363 41.4077C37.3965 41.5187 37.4451 41.6141 37.4821 41.6936C37.5218 41.7798 37.5711 41.8997 37.6298 42.0534L38.4805 42.4179C38.6083 42.4724 38.6874 42.6002 38.6789 42.737L38.6164 43.7193C38.6121 43.7831 38.5892 43.8443 38.5505 43.8952C38.5118 43.9461 38.4589 43.9846 38.3986 44.0057L37.5929 44.2921C37.5698 44.4032 37.5455 44.4989 37.5199 44.579C37.4786 44.7033 37.4315 44.8255 37.3789 44.9455L37.7836 45.8402C37.8124 45.903 37.8202 45.9734 37.8059 46.0411C37.7916 46.1087 37.7559 46.1699 37.7041 46.2156L36.9343 46.903C36.8837 46.9483 36.8205 46.9769 36.7531 46.985C36.6857 46.9932 36.6174 46.9804 36.5575 46.9485L35.7641 46.5281C35.6401 46.594 35.512 46.6521 35.3806 46.7018L35.0341 46.8315L34.7263 47.6837C34.7033 47.7459 34.6621 47.7998 34.6081 47.8384C34.5541 47.877 34.4897 47.8984 34.4234 47.9L33.5239 47.9204C33.4557 47.9219 33.3888 47.9025 33.3321 47.8646C33.2754 47.8267 33.2318 47.7723 33.2072 47.7088L32.8445 46.7491C32.7208 46.7068 32.5983 46.661 32.4772 46.6119C32.3781 46.569 32.2805 46.5227 32.1846 46.4731L31.2851 46.8576C31.2259 46.883 31.1605 46.8905 31.097 46.8794C31.0335 46.8682 30.9747 46.8387 30.9277 46.7946L30.2621 46.1702C30.2123 46.124 30.1785 46.0633 30.1653 45.9967C30.1521 45.9302 30.1603 45.8611 30.1887 45.7995L30.5755 44.9568C30.5242 44.8569 30.4765 44.7552 30.4325 44.6519C30.3812 44.5255 30.3339 44.3974 30.2905 44.268L29.4431 44.01C29.3742 43.9892 29.3141 43.9462 29.2722 43.8877C29.2302 43.8293 29.2088 43.7586 29.2111 43.6867L29.2443 42.7772C29.2467 42.7179 29.2653 42.6604 29.298 42.6109C29.3307 42.5613 29.3763 42.5216 29.4298 42.496L30.3189 42.069C30.3599 41.9181 30.3962 41.8001 30.4278 41.7149C30.4724 41.6004 30.522 41.488 30.5764 41.3778L30.1911 40.5636C30.1616 40.5018 30.1526 40.4322 30.1654 40.3649C30.1781 40.2977 30.212 40.2363 30.2621 40.1896L30.9268 39.5618C30.9733 39.5178 31.0316 39.4882 31.0946 39.4766C31.1576 39.465 31.2226 39.4719 31.2818 39.4965L32.1803 39.8676C32.2794 39.8017 32.3697 39.7474 32.4511 39.7048C32.548 39.6537 32.6781 39.5991 32.8412 39.541L33.1537 38.6694C33.177 38.6058 33.2193 38.5509 33.2748 38.512C33.3304 38.4732 33.3965 38.4523 33.4642 38.4521H34.4556ZM33.9566 41.775C33.1674 41.775 32.5278 42.407 32.5278 43.1872C32.5278 43.9674 33.1674 44.5999 33.9566 44.5999C34.7458 44.5999 35.3849 43.9674 35.3849 43.1872C35.3849 42.407 34.7458 41.775 33.9566 41.775Z" fill="url(#paint1_linear_463_120)"/>
</g>
<g clip-path="url(#clip1_463_120)">
<path d="M43.0463 33.7175C43.1623 33.7175 43.266 33.7897 43.3051 33.8978L43.5836 34.6699C43.6833 34.6946 43.7693 34.7198 43.8416 34.7456C43.9205 34.7738 44.0231 34.8172 44.1493 34.8758L44.7979 34.5326C44.8508 34.5044 44.9115 34.4942 44.9707 34.5035C45.0299 34.5129 45.0845 34.5412 45.1261 34.5843L45.6966 35.1741C45.7724 35.2526 45.7937 35.3674 45.7511 35.4676L45.4469 36.1804C45.4971 36.273 45.5376 36.3525 45.5684 36.4187C45.6015 36.4905 45.6426 36.5905 45.6915 36.7186L46.4004 37.0223C46.5069 37.0677 46.5728 37.1742 46.5657 37.2882L46.5136 38.1068C46.5101 38.16 46.491 38.211 46.4587 38.2534C46.4265 38.2958 46.3825 38.3279 46.3322 38.3455L45.6607 38.5842C45.6415 38.6768 45.6213 38.7565 45.6 38.8233C45.5655 38.9268 45.5263 39.0287 45.4824 39.1286L45.8197 39.8742C45.8437 39.9266 45.8502 39.9853 45.8383 40.0416C45.8263 40.098 45.7966 40.149 45.7534 40.1871L45.1119 40.7599C45.0698 40.7976 45.0171 40.8215 44.9609 40.8283C44.9047 40.835 44.8478 40.8244 44.7979 40.7978L44.1367 40.4475C44.0334 40.5024 43.9266 40.5508 43.8172 40.5922L43.5284 40.7003L43.272 41.4105C43.2528 41.4623 43.2184 41.5073 43.1734 41.5394C43.1284 41.5716 43.0748 41.5894 43.0195 41.5907L42.2699 41.6077C42.2131 41.609 42.1573 41.5928 42.1101 41.5612C42.0628 41.5297 42.0265 41.4843 42.006 41.4314L41.7038 40.6317C41.6007 40.5964 41.4986 40.5582 41.3976 40.5173C41.3151 40.4815 41.2338 40.443 41.1538 40.4017L40.4043 40.722C40.3549 40.7432 40.3004 40.7495 40.2475 40.7402C40.1946 40.7309 40.1456 40.7063 40.1064 40.6696L39.5517 40.1492C39.5103 40.1107 39.4821 40.0602 39.4711 40.0047C39.4601 39.9492 39.4669 39.8917 39.4906 39.8403L39.8129 39.1381C39.7702 39.0548 39.7304 38.9701 39.6938 38.884C39.651 38.7786 39.6116 38.6719 39.5754 38.5641L38.8692 38.3491C38.8118 38.3317 38.7618 38.2959 38.7268 38.2472C38.6919 38.1985 38.674 38.1396 38.6759 38.0796L38.7035 37.3218C38.7056 37.2723 38.7211 37.2244 38.7483 37.1831C38.7756 37.1418 38.8136 37.1087 38.8582 37.0874L39.5991 36.7316C39.6333 36.6059 39.6635 36.5075 39.6898 36.4365C39.727 36.3411 39.7684 36.2474 39.8137 36.1556L39.4926 35.477C39.468 35.4255 39.4605 35.3676 39.4711 35.3115C39.4818 35.2555 39.51 35.2043 39.5517 35.1654L40.1056 34.6423C40.1444 34.6056 40.193 34.5809 40.2455 34.5712C40.298 34.5615 40.3522 34.5673 40.4015 34.5878L41.1503 34.8971C41.2329 34.8421 41.3081 34.7969 41.3759 34.7614C41.4567 34.7188 41.565 34.6733 41.701 34.6249L41.9614 33.8986C41.9808 33.8456 42.0161 33.7998 42.0624 33.7674C42.1086 33.735 42.1637 33.7176 42.2202 33.7175H43.0463ZM42.6305 36.4866C41.9728 36.4866 41.4399 37.0133 41.4399 37.6634C41.4399 38.3136 41.9728 38.8406 42.6305 38.8406C43.2881 38.8406 43.8207 38.3136 43.8207 37.6634C43.8207 37.0133 43.2881 36.4866 42.6305 36.4866Z" fill="url(#paint2_linear_463_120)"/>
</g>
<path d="M35.5232 36.8738H30.7891V16.3594H44.9914C53.8284 21.4091 48.6735 27.9316 44.9914 30.5617L51.3035 38.4519L47.3584 40.8189L39.4683 30.5617H35.5232V36.8738Z" fill="#F6BC23" stroke="#F7BF25" stroke-width="0.315616"/>
<path d="M35.5215 21.0952V27.4074H42.5686C46.9535 24.5218 44.3956 21.9969 42.5686 21.0952H35.5215Z" fill="white" stroke="#F7BF25" stroke-width="0.315616"/>
<g clip-path="url(#clip2_463_120)">
<path d="M40.861 22.6709C40.919 22.6709 40.9709 22.707 40.9904 22.761L41.1297 23.1471C41.1795 23.1594 41.2225 23.1721 41.2587 23.1849C41.2982 23.199 41.3494 23.2207 41.4126 23.25L41.7368 23.0784C41.7633 23.0643 41.7936 23.0592 41.8232 23.0639C41.8528 23.0686 41.8801 23.0827 41.901 23.1043L42.1862 23.3992C42.2241 23.4384 42.2347 23.4958 42.2134 23.5459L42.0613 23.9024C42.0865 23.9486 42.1067 23.9884 42.1221 24.0215C42.1387 24.0574 42.1592 24.1074 42.1836 24.1714L42.5381 24.3233C42.5914 24.346 42.6243 24.3992 42.6207 24.4562L42.5947 24.8656C42.5929 24.8921 42.5834 24.9176 42.5673 24.9388C42.5511 24.9601 42.5291 24.9761 42.504 24.9849L42.1682 25.1042C42.1586 25.1505 42.1485 25.1904 42.1379 25.2238C42.1206 25.2755 42.101 25.3265 42.0791 25.3764L42.2477 25.7493C42.2597 25.7754 42.263 25.8048 42.257 25.8329C42.2511 25.8611 42.2362 25.8866 42.2146 25.9057L41.8939 26.1921C41.8728 26.2109 41.8464 26.2229 41.8183 26.2263C41.7903 26.2297 41.7618 26.2243 41.7368 26.211L41.4063 26.0359C41.3546 26.0634 41.3012 26.0875 41.2465 26.1083L41.1021 26.1623L40.9739 26.5174C40.9643 26.5433 40.9471 26.5658 40.9246 26.5818C40.9021 26.5979 40.8753 26.6069 40.8476 26.6075L40.4728 26.616C40.4444 26.6166 40.4165 26.6085 40.3929 26.5928C40.3693 26.577 40.3511 26.5543 40.3409 26.5278L40.1898 26.128C40.1382 26.1103 40.0872 26.0913 40.0367 26.0708C39.9954 26.0529 39.9548 26.0336 39.9148 26.013L39.54 26.1732C39.5153 26.1837 39.4881 26.1869 39.4617 26.1822C39.4352 26.1776 39.4107 26.1653 39.3911 26.1469L39.1138 25.8867C39.093 25.8675 39.0789 25.8422 39.0734 25.8145C39.0679 25.7867 39.0714 25.758 39.0832 25.7323L39.2443 25.3812C39.223 25.3396 39.2031 25.2972 39.1848 25.2541C39.1634 25.2014 39.1437 25.1481 39.1256 25.0942L38.7725 24.9867C38.7438 24.978 38.7188 24.9601 38.7013 24.9357C38.6838 24.9114 38.6749 24.8819 38.6759 24.8519L38.6897 24.473C38.6907 24.4483 38.6984 24.4243 38.7121 24.4037C38.7257 24.383 38.7447 24.3665 38.767 24.3558L39.1374 24.1779C39.1545 24.1151 39.1696 24.0659 39.1828 24.0304C39.2014 23.9827 39.2221 23.9358 39.2447 23.8899L39.0842 23.5507C39.0719 23.5249 39.0681 23.4959 39.0735 23.4679C39.0788 23.4399 39.0929 23.4143 39.1138 23.3948L39.3907 23.1333C39.4101 23.1149 39.4344 23.1026 39.4606 23.0977C39.4869 23.0929 39.514 23.0958 39.5386 23.106L39.913 23.2607C39.9543 23.2332 39.9919 23.2106 40.0259 23.1928C40.0662 23.1715 40.1204 23.1488 40.1884 23.1246L40.3186 22.7614C40.3283 22.7349 40.3459 22.712 40.3691 22.6958C40.3922 22.6797 40.4197 22.6709 40.448 22.6709H40.861ZM40.6531 24.0554C40.3243 24.0554 40.0578 24.3188 40.0578 24.6438C40.0578 24.9689 40.3243 25.2324 40.6531 25.2324C40.982 25.2324 41.2483 24.9689 41.2483 24.6438C41.2483 24.3188 40.982 24.0554 40.6531 24.0554Z" fill="url(#paint3_linear_463_120)"/>
</g>
<path d="M83.7691 20.8923V37H80.5383V26.5231L76.2229 37H73.7768L69.4383 26.5231V37H66.2075V20.8923H69.8768L74.9999 32.8692L80.1229 20.8923H83.7691ZM86.1325 30.5615C86.1325 29.2692 86.3863 28.1231 86.894 27.1231C87.4171 26.1231 88.1171 25.3538 88.994 24.8154C89.8863 24.2769 90.8786 24.0077 91.9709 24.0077C92.9248 24.0077 93.7556 24.2 94.4633 24.5846C95.1863 24.9692 95.7633 25.4538 96.194 26.0385V24.2154H99.4479V37H96.194V35.1308C95.7786 35.7308 95.2017 36.2308 94.4633 36.6308C93.7402 37.0154 92.9017 37.2077 91.9479 37.2077C90.8709 37.2077 89.8863 36.9308 88.994 36.3769C88.1171 35.8231 87.4171 35.0462 86.894 34.0462C86.3863 33.0308 86.1325 31.8692 86.1325 30.5615ZM96.194 30.6077C96.194 29.8231 96.0402 29.1538 95.7325 28.6C95.4248 28.0308 95.0094 27.6 94.4863 27.3077C93.9633 27 93.4017 26.8462 92.8017 26.8462C92.2017 26.8462 91.6479 26.9923 91.1402 27.2846C90.6325 27.5769 90.2171 28.0077 89.894 28.5769C89.5863 29.1308 89.4325 29.7923 89.4325 30.5615C89.4325 31.3308 89.5863 32.0077 89.894 32.5923C90.2171 33.1615 90.6325 33.6 91.1402 33.9077C91.6633 34.2154 92.2171 34.3692 92.8017 34.3692C93.4017 34.3692 93.9633 34.2231 94.4863 33.9308C95.0094 33.6231 95.4248 33.1923 95.7325 32.6385C96.0402 32.0692 96.194 31.3923 96.194 30.6077ZM101.773 30.6077C101.773 29.2846 102.042 28.1308 102.58 27.1462C103.119 26.1462 103.865 25.3769 104.819 24.8385C105.773 24.2846 106.865 24.0077 108.096 24.0077C109.68 24.0077 110.988 24.4077 112.019 25.2077C113.065 25.9923 113.765 27.1 114.119 28.5308H110.634C110.449 27.9769 110.134 27.5462 109.688 27.2385C109.257 26.9154 108.719 26.7538 108.073 26.7538C107.149 26.7538 106.419 27.0923 105.88 27.7692C105.342 28.4308 105.073 29.3769 105.073 30.6077C105.073 31.8231 105.342 32.7692 105.88 33.4462C106.419 34.1077 107.149 34.4385 108.073 34.4385C109.38 34.4385 110.234 33.8538 110.634 32.6846H114.119C113.765 34.0692 113.065 35.1692 112.019 35.9846C110.973 36.8 109.665 37.2077 108.096 37.2077C106.865 37.2077 105.773 36.9385 104.819 36.4C103.865 35.8462 103.119 35.0769 102.58 34.0923C102.042 33.0923 101.773 31.9308 101.773 30.6077ZM123.685 24.0308C124.655 24.0308 125.516 24.2462 126.27 24.6769C127.024 25.0923 127.609 25.7154 128.024 26.5462C128.455 27.3615 128.67 28.3462 128.67 29.5V37H125.439V29.9385C125.439 28.9231 125.185 28.1462 124.678 27.6077C124.17 27.0538 123.478 26.7769 122.601 26.7769C121.709 26.7769 121.001 27.0538 120.478 27.6077C119.97 28.1462 119.716 28.9231 119.716 29.9385V37H116.485V19.9231H119.716V25.8077C120.132 25.2538 120.685 24.8231 121.378 24.5154C122.07 24.1923 122.839 24.0308 123.685 24.0308ZM133.381 22.6923C132.812 22.6923 132.335 22.5154 131.95 22.1615C131.581 21.7923 131.396 21.3385 131.396 20.8C131.396 20.2615 131.581 19.8154 131.95 19.4615C132.335 19.0923 132.812 18.9077 133.381 18.9077C133.95 18.9077 134.419 19.0923 134.789 19.4615C135.173 19.8154 135.365 20.2615 135.365 20.8C135.365 21.3385 135.173 21.7923 134.789 22.1615C134.419 22.5154 133.95 22.6923 133.381 22.6923ZM134.973 24.2154V37H131.742V24.2154H134.973ZM145.25 24.0308C146.773 24.0308 148.004 24.5154 148.942 25.4846C149.881 26.4385 150.35 27.7769 150.35 29.5V37H147.119V29.9385C147.119 28.9231 146.865 28.1462 146.357 27.6077C145.85 27.0538 145.157 26.7769 144.281 26.7769C143.388 26.7769 142.681 27.0538 142.157 27.6077C141.65 28.1462 141.396 28.9231 141.396 29.9385V37H138.165V24.2154H141.396V25.8077C141.827 25.2538 142.373 24.8231 143.034 24.5154C143.711 24.1923 144.45 24.0308 145.25 24.0308ZM165.307 30.3308C165.307 30.7923 165.276 31.2077 165.214 31.5769H155.868C155.945 32.5 156.268 33.2231 156.837 33.7462C157.407 34.2692 158.107 34.5308 158.937 34.5308C160.137 34.5308 160.991 34.0154 161.499 32.9846H164.984C164.614 34.2154 163.907 35.2308 162.861 36.0308C161.814 36.8154 160.53 37.2077 159.007 37.2077C157.776 37.2077 156.668 36.9385 155.684 36.4C154.714 35.8462 153.953 35.0692 153.399 34.0692C152.861 33.0692 152.591 31.9154 152.591 30.6077C152.591 29.2846 152.861 28.1231 153.399 27.1231C153.937 26.1231 154.691 25.3538 155.661 24.8154C156.63 24.2769 157.745 24.0077 159.007 24.0077C160.222 24.0077 161.307 24.2692 162.261 24.7923C163.23 25.3154 163.976 26.0615 164.499 27.0308C165.037 27.9846 165.307 29.0846 165.307 30.3308ZM161.961 29.4077C161.945 28.5769 161.645 27.9154 161.061 27.4231C160.476 26.9154 159.761 26.6615 158.914 26.6615C158.114 26.6615 157.437 26.9077 156.884 27.4C156.345 27.8769 156.014 28.5462 155.891 29.4077H161.961ZM172.557 37.2077C171.511 37.2077 170.573 37.0231 169.742 36.6538C168.911 36.2692 168.249 35.7538 167.757 35.1077C167.28 34.4615 167.019 33.7462 166.973 32.9615H170.226C170.288 33.4538 170.526 33.8615 170.942 34.1846C171.373 34.5077 171.903 34.6692 172.534 34.6692C173.149 34.6692 173.626 34.5462 173.965 34.3C174.319 34.0538 174.496 33.7385 174.496 33.3538C174.496 32.9385 174.28 32.6308 173.849 32.4308C173.434 32.2154 172.765 31.9846 171.842 31.7385C170.888 31.5077 170.103 31.2692 169.488 31.0231C168.888 30.7769 168.365 30.4 167.919 29.8923C167.488 29.3846 167.273 28.7 167.273 27.8385C167.273 27.1308 167.473 26.4846 167.873 25.9C168.288 25.3154 168.873 24.8538 169.626 24.5154C170.396 24.1769 171.296 24.0077 172.326 24.0077C173.849 24.0077 175.065 24.3923 175.973 25.1615C176.88 25.9154 177.38 26.9385 177.473 28.2308H174.38C174.334 27.7231 174.119 27.3231 173.734 27.0308C173.365 26.7231 172.865 26.5692 172.234 26.5692C171.649 26.5692 171.196 26.6769 170.873 26.8923C170.565 27.1077 170.411 27.4077 170.411 27.7923C170.411 28.2231 170.626 28.5538 171.057 28.7846C171.488 29 172.157 29.2231 173.065 29.4538C173.988 29.6846 174.749 29.9231 175.349 30.1692C175.949 30.4154 176.465 30.8 176.896 31.3231C177.342 31.8308 177.573 32.5077 177.588 33.3538C177.588 34.0923 177.38 34.7538 176.965 35.3385C176.565 35.9231 175.98 36.3846 175.211 36.7231C174.457 37.0462 173.573 37.2077 172.557 37.2077Z" fill="white"/>
<path d="M184.588 37L182.455 33.2338H181.542V37H179.603V27.3354H183.231C183.978 27.3354 184.615 27.4692 185.142 27.7369C185.668 27.9954 186.06 28.3508 186.318 28.8031C186.586 29.2462 186.72 29.7446 186.72 30.2985C186.72 30.9354 186.535 31.5123 186.166 32.0292C185.797 32.5369 185.248 32.8877 184.518 33.0815L186.831 37H184.588ZM181.542 31.78H183.162C183.688 31.78 184.08 31.6554 184.338 31.4062C184.597 31.1477 184.726 30.7923 184.726 30.34C184.726 29.8969 184.597 29.5554 184.338 29.3154C184.08 29.0662 183.688 28.9415 183.162 28.9415H181.542V31.78ZM195.604 32.9985C195.604 33.2754 195.586 33.5246 195.549 33.7462H189.941C189.987 34.3 190.181 34.7338 190.522 35.0477C190.864 35.3615 191.284 35.5185 191.782 35.5185C192.502 35.5185 193.015 35.2092 193.319 34.5908H195.41C195.189 35.3292 194.764 35.9385 194.136 36.4185C193.509 36.8892 192.738 37.1246 191.824 37.1246C191.086 37.1246 190.421 36.9631 189.83 36.64C189.249 36.3077 188.792 35.8415 188.459 35.2415C188.136 34.6415 187.975 33.9492 187.975 33.1646C187.975 32.3708 188.136 31.6738 188.459 31.0738C188.782 30.4738 189.235 30.0123 189.816 29.6892C190.398 29.3662 191.067 29.2046 191.824 29.2046C192.553 29.2046 193.204 29.3615 193.776 29.6754C194.358 29.9892 194.806 30.4369 195.119 31.0185C195.442 31.5908 195.604 32.2508 195.604 32.9985ZM193.596 32.4446C193.587 31.9462 193.407 31.5492 193.056 31.2538C192.706 30.9492 192.276 30.7969 191.769 30.7969C191.289 30.7969 190.882 30.9446 190.55 31.24C190.227 31.5262 190.029 31.9277 189.955 32.4446H193.596ZM201.27 29.2185C202.184 29.2185 202.922 29.5092 203.485 30.0908C204.048 30.6631 204.33 31.4662 204.33 32.5V37H202.391V32.7631C202.391 32.1538 202.239 31.6877 201.934 31.3646C201.63 31.0323 201.214 30.8662 200.688 30.8662C200.153 30.8662 199.728 31.0323 199.414 31.3646C199.11 31.6877 198.957 32.1538 198.957 32.7631V37H197.019V29.3292H198.957V30.2846C199.216 29.9523 199.544 29.6938 199.94 29.5092C200.347 29.3154 200.79 29.2185 201.27 29.2185ZM208.43 30.9215V34.6323C208.43 34.8908 208.49 35.08 208.61 35.2C208.739 35.3108 208.952 35.3662 209.247 35.3662H210.147V37H208.928C207.295 37 206.478 36.2062 206.478 34.6185V30.9215H205.564V29.3292H206.478V27.4323H208.43V29.3292H210.147V30.9215H208.43ZM211.043 33.1369C211.043 32.3615 211.195 31.6738 211.5 31.0738C211.813 30.4738 212.233 30.0123 212.76 29.6892C213.295 29.3662 213.89 29.2046 214.546 29.2046C215.118 29.2046 215.617 29.32 216.041 29.5508C216.475 29.7815 216.821 30.0723 217.08 30.4231V29.3292H219.032V37H217.08V35.8785C216.83 36.2385 216.484 36.5385 216.041 36.7785C215.607 37.0092 215.104 37.1246 214.532 37.1246C213.886 37.1246 213.295 36.9585 212.76 36.6262C212.233 36.2938 211.813 35.8277 211.5 35.2277C211.195 34.6185 211.043 33.9215 211.043 33.1369ZM217.08 33.1646C217.08 32.6938 216.987 32.2923 216.803 31.96C216.618 31.6185 216.369 31.36 216.055 31.1846C215.741 31 215.404 30.9077 215.044 30.9077C214.684 30.9077 214.352 30.9954 214.047 31.1708C213.743 31.3462 213.493 31.6046 213.3 31.9462C213.115 32.2785 213.023 32.6754 213.023 33.1369C213.023 33.5985 213.115 34.0046 213.3 34.3554C213.493 34.6969 213.743 34.96 214.047 35.1446C214.361 35.3292 214.693 35.4215 215.044 35.4215C215.404 35.4215 215.741 35.3338 216.055 35.1585C216.369 34.9738 216.618 34.7154 216.803 34.3831C216.987 34.0415 217.08 33.6354 217.08 33.1646ZM222.864 26.7538V37H220.925V26.7538H222.864ZM227.714 37.1246C227.087 37.1246 226.523 37.0138 226.025 36.7923C225.527 36.5615 225.13 36.2523 224.834 35.8646C224.548 35.4769 224.391 35.0477 224.363 34.5769H226.316C226.353 34.8723 226.496 35.1169 226.745 35.3108C227.003 35.5046 227.322 35.6015 227.7 35.6015C228.07 35.6015 228.356 35.5277 228.559 35.38C228.771 35.2323 228.877 35.0431 228.877 34.8123C228.877 34.5631 228.748 34.3785 228.49 34.2585C228.24 34.1292 227.839 33.9908 227.285 33.8431C226.713 33.7046 226.242 33.5615 225.873 33.4138C225.513 33.2662 225.199 33.04 224.931 32.7354C224.673 32.4308 224.543 32.02 224.543 31.5031C224.543 31.0785 224.663 30.6908 224.903 30.34C225.153 29.9892 225.503 29.7123 225.956 29.5092C226.417 29.3062 226.957 29.2046 227.576 29.2046C228.49 29.2046 229.219 29.4354 229.763 29.8969C230.308 30.3492 230.608 30.9631 230.663 31.7385H228.808C228.78 31.4338 228.651 31.1938 228.42 31.0185C228.199 30.8338 227.899 30.7415 227.52 30.7415C227.17 30.7415 226.897 30.8062 226.703 30.9354C226.519 31.0646 226.427 31.2446 226.427 31.4754C226.427 31.7338 226.556 31.9323 226.814 32.0708C227.073 32.2 227.474 32.3338 228.019 32.4723C228.573 32.6108 229.03 32.7538 229.39 32.9015C229.75 33.0492 230.059 33.28 230.317 33.5938C230.585 33.8985 230.723 34.3046 230.733 34.8123C230.733 35.2554 230.608 35.6523 230.359 36.0031C230.119 36.3538 229.768 36.6308 229.307 36.8338C228.854 37.0277 228.323 37.1246 227.714 37.1246Z" fill="#F6C90E"/>
<defs>
<linearGradient id="paint0_linear_463_120" x1="18.9525" y1="16.3594" x2="18.9525" y2="51.0762" gradientUnits="userSpaceOnUse">
<stop stop-color="#30556F"/>
<stop offset="1" stop-color="#0A2540"/>
</linearGradient>
<linearGradient id="paint1_linear_463_120" x1="33.9452" y1="38.4521" x2="33.9452" y2="47.9205" gradientUnits="userSpaceOnUse">
<stop stop-color="#30556F"/>
<stop offset="1" stop-color="#0A2540"/>
</linearGradient>
<linearGradient id="paint2_linear_463_120" x1="42.621" y1="33.7175" x2="42.621" y2="41.6078" gradientUnits="userSpaceOnUse">
<stop stop-color="#30556F"/>
<stop offset="1" stop-color="#0A2540"/>
</linearGradient>
<linearGradient id="paint3_linear_463_120" x1="40.6484" y1="22.6709" x2="40.6484" y2="26.616" gradientUnits="userSpaceOnUse">
<stop stop-color="#30556F"/>
<stop offset="1" stop-color="#0A2540"/>
</linearGradient>
<clipPath id="clip0_463_120">
<rect width="9.46822" height="9.46822" fill="white" transform="translate(29.2109 38.4524)"/>
</clipPath>
<clipPath id="clip1_463_120">
<rect width="7.89018" height="7.89018" fill="white" transform="translate(38.6758 33.7183)"/>
</clipPath>
<clipPath id="clip2_463_120">
<rect width="3.94509" height="3.94509" fill="white" transform="translate(38.6758 22.6707)"/>
</clipPath>
</defs>
</svg>
