<svg width="28" height="28" viewBox="0 0 28 28" fill="none" xmlns="http://www.w3.org/2000/svg">
<path d="M9.33268 3.5C9.91602 3.5 12.2493 8.75 12.2493 9.33333C12.2493 10.5 10.4993 11.6667 9.91602 12.8333C9.33268 14 10.4993 15.1667 11.666 16.3333C12.121 16.7883 13.9993 18.6667 15.166 18.0833C16.3327 17.5 17.4993 15.75 18.666 15.75C19.2493 15.75 24.4993 18.0833 24.4993 18.6667C24.4993 21 22.7493 22.75 20.9993 23.3333C19.2493 23.9167 18.0827 23.9167 15.7493 23.3333C13.416 22.75 11.666 22.1667 8.74935 19.25C5.83268 16.3333 5.24935 14.5833 4.66602 12.25C4.08268 9.91667 4.08268 8.75 4.66602 7C5.24935 5.25 6.99935 3.5 9.33268 3.5Z" stroke="#1F6FEB" stroke-width="2.33333" stroke-linecap="round" stroke-linejoin="round"/>
</svg>
